<svg xmlns="http://www.w3.org/2000/svg" xmlns:xlink="http://www.w3.org/1999/xlink" width="300" zoomAndPan="magnify" viewBox="0 0 224.87999 74.999997" height="100" preserveAspectRatio="xMidYMid meet" version="1.2"><defs><clipPath id="b611c1a28c"><path d="M 77.453125 8.414062 L 103.875 8.414062 L 103.875 34.832031 L 77.453125 34.832031 Z M 77.453125 8.414062 "/></clipPath><clipPath id="0297bad9b8"><path d="M 90.664062 8.414062 C 97.957031 8.414062 103.875 14.328125 103.875 21.621094 C 103.875 28.917969 97.957031 34.832031 90.664062 34.832031 C 83.367188 34.832031 77.453125 28.917969 77.453125 21.621094 C 77.453125 14.328125 83.367188 8.414062 90.664062 8.414062 Z M 90.664062 8.414062 "/></clipPath><clipPath id="9a16890ba8"><path d="M 92 23 L 100.902344 23 L 100.902344 31.5625 L 92 31.5625 Z M 92 23 "/></clipPath><clipPath id="0eab1497d4"><path d="M 80.539062 11.199219 L 96 11.199219 L 96 27 L 80.539062 27 Z M 80.539062 11.199219 "/></clipPath></defs><g id="c5725ab6cf"><g clip-rule="nonzero" clip-path="url(#b611c1a28c)"><g clip-rule="nonzero" clip-path="url(#0297bad9b8)"><path style=" stroke:none;fill-rule:nonzero;fill:#051d40;fill-opacity:1;" d="M 77.453125 8.414062 L 103.875 8.414062 L 103.875 34.832031 L 77.453125 34.832031 Z M 77.453125 8.414062 "/></g></g><g clip-rule="nonzero" clip-path="url(#9a16890ba8)"><path style=" stroke:none;fill-rule:nonzero;fill:#ffffff;fill-opacity:1;" d="M 99.984375 28.039062 L 95.371094 23.429688 C 94.769531 24.429688 93.769531 25.433594 92.765625 26.035156 L 97.375 30.644531 C 98.179688 31.449219 99.382812 31.449219 99.984375 30.644531 C 100.785156 30.042969 100.785156 28.839844 99.984375 28.039062 Z M 99.984375 28.039062 "/></g><g clip-rule="nonzero" clip-path="url(#0eab1497d4)"><path style=" stroke:none;fill-rule:nonzero;fill:#ffffff;fill-opacity:1;" d="M 95.574219 18.816406 C 95.574219 14.609375 92.164062 11.199219 88.15625 11.199219 C 83.945312 11.199219 80.539062 14.609375 80.539062 18.816406 C 80.539062 22.828125 83.945312 26.234375 88.15625 26.234375 C 92.164062 26.234375 95.574219 22.828125 95.574219 18.816406 Z M 88.15625 24.429688 C 84.949219 24.429688 82.34375 21.824219 82.34375 18.816406 C 82.34375 15.609375 84.949219 13.003906 88.15625 13.003906 C 91.164062 13.003906 93.769531 15.609375 93.769531 18.816406 C 93.769531 21.824219 91.164062 24.429688 88.15625 24.429688 Z M 88.15625 24.429688 "/></g><path style=" stroke:none;fill-rule:nonzero;fill:#ffffff;fill-opacity:1;" d="M 83.746094 18.816406 L 84.949219 18.816406 C 84.949219 17.015625 86.351562 15.609375 88.15625 15.609375 L 88.15625 14.40625 C 85.550781 14.40625 83.746094 16.210938 83.746094 18.816406 Z M 83.746094 18.816406 "/><g style="fill:#051d40;fill-opacity:1;"><g transform="translate(35.529969, 30.579701)"><path style="stroke:none" d="M 9.890625 -19.0625 C 12.285156 -19.0625 14.253906 -18.578125 15.796875 -17.609375 C 17.335938 -16.640625 18.128906 -15.203125 18.171875 -13.296875 L 18.171875 -12.96875 L 12.53125 -12.96875 L 12.53125 -13.078125 C 12.53125 -13.617188 12.328125 -14.070312 11.921875 -14.4375 C 11.523438 -14.800781 10.921875 -14.984375 10.109375 -14.984375 C 9.304688 -14.984375 8.691406 -14.863281 8.265625 -14.625 C 7.835938 -14.382812 7.625 -14.09375 7.625 -13.75 C 7.625 -13.257812 7.914062 -12.894531 8.5 -12.65625 C 9.082031 -12.425781 10.015625 -12.179688 11.296875 -11.921875 C 12.804688 -11.617188 14.046875 -11.296875 15.015625 -10.953125 C 15.992188 -10.617188 16.84375 -10.070312 17.5625 -9.3125 C 18.289062 -8.550781 18.664062 -7.515625 18.6875 -6.203125 C 18.6875 -3.992188 17.9375 -2.351562 16.4375 -1.28125 C 14.9375 -0.207031 12.9375 0.328125 10.4375 0.328125 C 7.507812 0.328125 5.234375 -0.160156 3.609375 -1.140625 C 1.984375 -2.117188 1.171875 -3.851562 1.171875 -6.34375 L 6.859375 -6.34375 C 6.859375 -5.394531 7.101562 -4.757812 7.59375 -4.4375 C 8.082031 -4.125 8.847656 -3.96875 9.890625 -3.96875 C 10.648438 -3.96875 11.28125 -4.050781 11.78125 -4.21875 C 12.28125 -4.382812 12.53125 -4.722656 12.53125 -5.234375 C 12.53125 -5.679688 12.25 -6.019531 11.6875 -6.25 C 11.132812 -6.476562 10.234375 -6.71875 8.984375 -6.96875 C 7.460938 -7.300781 6.203125 -7.644531 5.203125 -8 C 4.203125 -8.351562 3.328125 -8.9375 2.578125 -9.75 C 1.835938 -10.5625 1.46875 -11.671875 1.46875 -13.078125 C 1.46875 -15.128906 2.257812 -16.640625 3.84375 -17.609375 C 5.4375 -18.578125 7.453125 -19.0625 9.890625 -19.0625 Z M 9.890625 -19.0625 "/></g></g><g style="fill:#051d40;fill-opacity:1;"><g transform="translate(54.647606, 30.579701)"><path style="stroke:none" d="M 12.53125 -18.734375 C 13.6875 -18.734375 14.71875 -18.460938 15.625 -17.921875 C 16.539062 -17.390625 17.25 -16.65625 17.75 -15.71875 C 18.257812 -14.789062 18.515625 -13.742188 18.515625 -12.578125 L 18.515625 -12.234375 C 18.515625 -11.066406 18.257812 -10.007812 17.75 -9.0625 C 17.25 -8.125 16.539062 -7.382812 15.625 -6.84375 C 14.71875 -6.3125 13.6875 -6.046875 12.53125 -6.046875 L 8.03125 -6.046875 L 8.03125 0 L 2.015625 0 L 2.015625 -18.734375 Z M 8.03125 -10.4375 L 10.515625 -10.4375 C 11.148438 -10.4375 11.625 -10.597656 11.9375 -10.921875 C 12.257812 -11.242188 12.421875 -11.6875 12.421875 -12.25 L 12.421875 -12.46875 C 12.421875 -13.050781 12.257812 -13.5 11.9375 -13.8125 C 11.625 -14.132812 11.148438 -14.296875 10.515625 -14.296875 L 8.03125 -14.296875 Z M 8.03125 -10.4375 "/></g></g><g style="fill:#051d40;fill-opacity:1;"><g transform="translate(106.051935, 29.85523)"><path style="stroke:none" d="M 16.28125 0 L 8.265625 0 L 8.265625 -14.359375 L 0.796875 -14.359375 L 0.796875 -19.078125 L 23.75 -19.078125 L 23.75 -14.359375 L 16.28125 -14.359375 Z M 16.28125 0 "/></g></g><g style="fill:#051d40;fill-opacity:1;"><g transform="translate(34.932111, 60.115567)"><path style="stroke:none" d="M 12.796875 -13.9375 L 12.796875 0 L 6.78125 0 L 6.78125 -13.9375 L 0.625 -13.9375 L 0.625 -18.734375 L 18.921875 -18.734375 L 18.921875 -13.9375 Z M 12.796875 -13.9375 "/></g></g><g style="fill:#051d40;fill-opacity:1;"><g transform="translate(54.049748, 60.115567)"><path style="stroke:none" d="M 14.65625 0 L 14.65625 -7.109375 L 8.03125 -7.109375 L 8.03125 0 L 2.015625 0 L 2.015625 -18.734375 L 8.03125 -18.734375 L 8.03125 -11.90625 L 14.65625 -11.90625 L 14.65625 -18.734375 L 20.671875 -18.734375 L 20.671875 0 Z M 14.65625 0 "/></g></g><g style="fill:#051d40;fill-opacity:1;"><g transform="translate(76.190276, 60.115567)"><path style="stroke:none" d="M 2.015625 -18.734375 L 18.21875 -18.734375 L 18.21875 -14.25 L 8.03125 -14.25 L 8.03125 -11.65625 L 16.75 -11.65625 L 16.75 -7.359375 L 8.03125 -7.359375 L 8.03125 -4.5 L 18.40625 -4.5 L 18.40625 0 L 2.015625 0 Z M 2.015625 -18.734375 "/></g></g><g style="fill:#051d40;fill-opacity:1;"><g transform="translate(95.307912, 60.115567)"><path style="stroke:none" d=""/></g></g><g style="fill:#051d40;fill-opacity:1;"><g transform="translate(103.831817, 60.115567)"><path style="stroke:none" d="M 9.890625 -19.0625 C 12.285156 -19.0625 14.253906 -18.578125 15.796875 -17.609375 C 17.335938 -16.640625 18.128906 -15.203125 18.171875 -13.296875 L 18.171875 -12.96875 L 12.53125 -12.96875 L 12.53125 -13.078125 C 12.53125 -13.617188 12.328125 -14.070312 11.921875 -14.4375 C 11.523438 -14.800781 10.921875 -14.984375 10.109375 -14.984375 C 9.304688 -14.984375 8.691406 -14.863281 8.265625 -14.625 C 7.835938 -14.382812 7.625 -14.09375 7.625 -13.75 C 7.625 -13.257812 7.914062 -12.894531 8.5 -12.65625 C 9.082031 -12.425781 10.015625 -12.179688 11.296875 -11.921875 C 12.804688 -11.617188 14.046875 -11.296875 15.015625 -10.953125 C 15.992188 -10.617188 16.84375 -10.070312 17.5625 -9.3125 C 18.289062 -8.550781 18.664062 -7.515625 18.6875 -6.203125 C 18.6875 -3.992188 17.9375 -2.351562 16.4375 -1.28125 C 14.9375 -0.207031 12.9375 0.328125 10.4375 0.328125 C 7.507812 0.328125 5.234375 -0.160156 3.609375 -1.140625 C 1.984375 -2.117188 1.171875 -3.851562 1.171875 -6.34375 L 6.859375 -6.34375 C 6.859375 -5.394531 7.101562 -4.757812 7.59375 -4.4375 C 8.082031 -4.125 8.847656 -3.96875 9.890625 -3.96875 C 10.648438 -3.96875 11.28125 -4.050781 11.78125 -4.21875 C 12.28125 -4.382812 12.53125 -4.722656 12.53125 -5.234375 C 12.53125 -5.679688 12.25 -6.019531 11.6875 -6.25 C 11.132812 -6.476562 10.234375 -6.71875 8.984375 -6.96875 C 7.460938 -7.300781 6.203125 -7.644531 5.203125 -8 C 4.203125 -8.351562 3.328125 -8.9375 2.578125 -9.75 C 1.835938 -10.5625 1.46875 -11.671875 1.46875 -13.078125 C 1.46875 -15.128906 2.257812 -16.640625 3.84375 -17.609375 C 5.4375 -18.578125 7.453125 -19.0625 9.890625 -19.0625 Z M 9.890625 -19.0625 "/></g></g><g style="fill:#051d40;fill-opacity:1;"><g transform="translate(122.949457, 60.115567)"><path style="stroke:none" d="M 10.953125 -19.0625 C 13.722656 -19.0625 15.914062 -18.363281 17.53125 -16.96875 C 19.15625 -15.582031 19.96875 -13.601562 19.96875 -11.03125 L 14.21875 -11.03125 C 14.21875 -12.113281 13.929688 -12.972656 13.359375 -13.609375 C 12.785156 -14.253906 11.972656 -14.578125 10.921875 -14.578125 C 9.703125 -14.578125 8.804688 -14.191406 8.234375 -13.421875 C 7.660156 -12.660156 7.375 -11.597656 7.375 -10.234375 L 7.375 -8.5 C 7.375 -7.15625 7.660156 -6.097656 8.234375 -5.328125 C 8.804688 -4.554688 9.679688 -4.171875 10.859375 -4.171875 C 12.023438 -4.171875 12.90625 -4.46875 13.5 -5.0625 C 14.101562 -5.664062 14.40625 -6.507812 14.40625 -7.59375 L 19.96875 -7.59375 C 19.96875 -5.039062 19.179688 -3.082031 17.609375 -1.71875 C 16.035156 -0.351562 13.816406 0.328125 10.953125 0.328125 C 7.753906 0.328125 5.332031 -0.488281 3.6875 -2.125 C 2.039062 -3.757812 1.21875 -6.175781 1.21875 -9.375 C 1.21875 -12.5625 2.039062 -14.972656 3.6875 -16.609375 C 5.332031 -18.242188 7.753906 -19.0625 10.953125 -19.0625 Z M 10.953125 -19.0625 "/></g></g><g style="fill:#051d40;fill-opacity:1;"><g transform="translate(143.592157, 60.115567)"><path style="stroke:none" d="M 14.578125 0 L 13.78125 -2.640625 L 7.21875 -2.640625 L 6.421875 0 L 0.265625 0 L 7.109375 -18.734375 L 14.109375 -18.734375 L 20.9375 0 Z M 8.46875 -6.828125 L 12.53125 -6.828125 L 10.5625 -13.515625 L 10.453125 -13.515625 Z M 8.46875 -6.828125 "/></g></g><g style="fill:#051d40;fill-opacity:1;"><g transform="translate(164.234848, 60.115567)"><path style="stroke:none" d="M 18.109375 0 L 18.109375 -6.75 C 18.109375 -7.582031 18.140625 -8.441406 18.203125 -9.328125 C 18.265625 -10.210938 18.332031 -10.953125 18.40625 -11.546875 C 18.476562 -12.148438 18.523438 -12.53125 18.546875 -12.6875 L 18.4375 -12.6875 L 14.984375 0 L 10.265625 0 L 6.78125 -12.65625 L 6.671875 -12.65625 C 6.691406 -12.5 6.738281 -12.125 6.8125 -11.53125 C 6.894531 -10.945312 6.972656 -10.210938 7.046875 -9.328125 C 7.117188 -8.441406 7.15625 -7.582031 7.15625 -6.75 L 7.15625 0 L 1.640625 0 L 1.640625 -18.734375 L 10.125 -18.734375 L 12.96875 -7.921875 L 13.078125 -7.921875 L 15.875 -18.734375 L 24.078125 -18.734375 L 24.078125 0 Z M 18.109375 0 "/></g></g></g></svg>