<svg xmlns="http://www.w3.org/2000/svg" xmlns:xlink="http://www.w3.org/1999/xlink" width="300" zoomAndPan="magnify" viewBox="0 0 224.87999 112.499997" height="150" preserveAspectRatio="xMidYMid meet" version="1.2"><defs><clipPath id="8ba17b0d69"><path d="M 48.339844 29.015625 L 73.824219 29.015625 L 73.824219 54.5 L 48.339844 54.5 Z M 48.339844 29.015625 "/></clipPath><clipPath id="f6a074056f"><path d="M 61.082031 29.015625 C 68.121094 29.015625 73.824219 34.71875 73.824219 41.757812 C 73.824219 48.792969 68.121094 54.5 61.082031 54.5 C 54.046875 54.5 48.339844 48.792969 48.339844 41.757812 C 48.339844 34.71875 54.046875 29.015625 61.082031 29.015625 Z M 61.082031 29.015625 "/></clipPath><clipPath id="9a516896ee"><path d="M 63 43 L 70.71875 43 L 70.71875 51 L 63 51 Z M 63 43 "/></clipPath><clipPath id="92baa30111"><path d="M 51.316406 31.703125 L 66 31.703125 L 66 47 L 51.316406 47 Z M 51.316406 31.703125 "/></clipPath></defs><g id="2683558b80"><g clip-rule="nonzero" clip-path="url(#8ba17b0d69)"><g clip-rule="nonzero" clip-path="url(#f6a074056f)"><path style=" stroke:none;fill-rule:nonzero;fill:#051d40;fill-opacity:1;" d="M 48.339844 29.015625 L 73.824219 29.015625 L 73.824219 54.5 L 48.339844 54.5 Z M 48.339844 29.015625 "/></g></g><g clip-rule="nonzero" clip-path="url(#9a516896ee)"><path style=" stroke:none;fill-rule:nonzero;fill:#ffffff;fill-opacity:1;" d="M 69.949219 47.839844 L 65.53125 43.421875 C 64.957031 44.382812 63.996094 45.34375 63.035156 45.917969 L 67.453125 50.335938 C 68.222656 51.105469 69.375 51.105469 69.949219 50.335938 C 70.71875 49.761719 70.71875 48.609375 69.949219 47.839844 Z M 69.949219 47.839844 "/></g><g clip-rule="nonzero" clip-path="url(#92baa30111)"><path style=" stroke:none;fill-rule:nonzero;fill:#ffffff;fill-opacity:1;" d="M 65.722656 39.003906 C 65.722656 34.96875 62.457031 31.703125 58.617188 31.703125 C 54.582031 31.703125 51.316406 34.96875 51.316406 39.003906 C 51.316406 42.84375 54.582031 46.109375 58.617188 46.109375 C 62.457031 46.109375 65.722656 42.84375 65.722656 39.003906 Z M 58.617188 44.382812 C 55.542969 44.382812 53.046875 41.886719 53.046875 39.003906 C 53.046875 35.929688 55.542969 33.433594 58.617188 33.433594 C 61.5 33.433594 63.996094 35.929688 63.996094 39.003906 C 63.996094 41.886719 61.5 44.382812 58.617188 44.382812 Z M 58.617188 44.382812 "/></g><path style=" stroke:none;fill-rule:nonzero;fill:#ffffff;fill-opacity:1;" d="M 54.390625 39.003906 L 55.542969 39.003906 C 55.542969 37.273438 56.886719 35.929688 58.617188 35.929688 L 58.617188 34.777344 C 56.121094 34.777344 54.390625 36.507812 54.390625 39.003906 Z M 54.390625 39.003906 "/><g style="fill:#051d40;fill-opacity:1;"><g transform="translate(7.905516, 50.396068)"><path style="stroke:none" d="M 9.53125 -18.390625 C 11.84375 -18.390625 13.742188 -17.921875 15.234375 -16.984375 C 16.722656 -16.046875 17.484375 -14.65625 17.515625 -12.8125 L 17.515625 -12.5 L 12.078125 -12.5 L 12.078125 -12.609375 C 12.078125 -13.128906 11.882812 -13.566406 11.5 -13.921875 C 11.113281 -14.273438 10.53125 -14.453125 9.75 -14.453125 C 8.976562 -14.453125 8.382812 -14.335938 7.96875 -14.109375 C 7.5625 -13.878906 7.359375 -13.597656 7.359375 -13.265625 C 7.359375 -12.796875 7.632812 -12.445312 8.1875 -12.21875 C 8.75 -11.988281 9.65625 -11.75 10.90625 -11.5 C 12.351562 -11.207031 13.546875 -10.898438 14.484375 -10.578125 C 15.421875 -10.253906 16.238281 -9.722656 16.9375 -8.984375 C 17.632812 -8.242188 17.992188 -7.242188 18.015625 -5.984375 C 18.015625 -3.847656 17.289062 -2.265625 15.84375 -1.234375 C 14.40625 -0.203125 12.476562 0.3125 10.0625 0.3125 C 7.238281 0.3125 5.039062 -0.15625 3.46875 -1.09375 C 1.90625 -2.039062 1.125 -3.71875 1.125 -6.125 L 6.625 -6.125 C 6.625 -5.207031 6.859375 -4.59375 7.328125 -4.28125 C 7.796875 -3.976562 8.53125 -3.828125 9.53125 -3.828125 C 10.269531 -3.828125 10.878906 -3.90625 11.359375 -4.0625 C 11.835938 -4.226562 12.078125 -4.554688 12.078125 -5.046875 C 12.078125 -5.484375 11.8125 -5.8125 11.28125 -6.03125 C 10.75 -6.25 9.878906 -6.476562 8.671875 -6.71875 C 7.203125 -7.039062 5.984375 -7.367188 5.015625 -7.703125 C 4.054688 -8.046875 3.21875 -8.609375 2.5 -9.390625 C 1.78125 -10.179688 1.421875 -11.253906 1.421875 -12.609375 C 1.421875 -14.585938 2.1875 -16.046875 3.71875 -16.984375 C 5.25 -17.921875 7.1875 -18.390625 9.53125 -18.390625 Z M 9.53125 -18.390625 "/></g></g><g style="fill:#051d40;fill-opacity:1;"><g transform="translate(26.345268, 50.396068)"><path style="stroke:none" d="M 12.078125 -18.078125 C 13.203125 -18.078125 14.203125 -17.816406 15.078125 -17.296875 C 15.953125 -16.773438 16.632812 -16.0625 17.125 -15.15625 C 17.613281 -14.257812 17.859375 -13.253906 17.859375 -12.140625 L 17.859375 -11.796875 C 17.859375 -10.671875 17.613281 -9.648438 17.125 -8.734375 C 16.632812 -7.828125 15.953125 -7.113281 15.078125 -6.59375 C 14.203125 -6.082031 13.203125 -5.828125 12.078125 -5.828125 L 7.75 -5.828125 L 7.75 0 L 1.9375 0 L 1.9375 -18.078125 Z M 7.75 -10.0625 L 10.140625 -10.0625 C 10.753906 -10.0625 11.210938 -10.21875 11.515625 -10.53125 C 11.828125 -10.84375 11.984375 -11.269531 11.984375 -11.8125 L 11.984375 -12.03125 C 11.984375 -12.59375 11.828125 -13.023438 11.515625 -13.328125 C 11.210938 -13.640625 10.753906 -13.796875 10.140625 -13.796875 L 7.75 -13.796875 Z M 7.75 -10.0625 "/></g></g><g style="fill:#051d40;fill-opacity:1;"><g transform="translate(75.926859, 49.697285)"><path style="stroke:none" d="M 15.703125 0 L 7.984375 0 L 7.984375 -13.84375 L 0.765625 -13.84375 L 0.765625 -18.40625 L 22.90625 -18.40625 L 22.90625 -13.84375 L 15.703125 -13.84375 Z M 15.703125 0 "/></g></g><g style="fill:#051d40;fill-opacity:1;"><g transform="translate(7.536163, 78.407916)"><path style="stroke:none" d="M 12.34375 -13.453125 L 12.34375 0 L 6.546875 0 L 6.546875 -13.453125 L 0.609375 -13.453125 L 0.609375 -18.078125 L 18.25 -18.078125 L 18.25 -13.453125 Z M 12.34375 -13.453125 "/></g></g><g style="fill:#051d40;fill-opacity:1;"><g transform="translate(25.971566, 78.407916)"><path style="stroke:none" d="M 14.125 0 L 14.125 -6.859375 L 7.75 -6.859375 L 7.75 0 L 1.9375 0 L 1.9375 -18.078125 L 7.75 -18.078125 L 7.75 -11.484375 L 14.125 -11.484375 L 14.125 -18.078125 L 19.9375 -18.078125 L 19.9375 0 Z M 14.125 0 "/></g></g><g style="fill:#051d40;fill-opacity:1;"><g transform="translate(47.322008, 78.407916)"><path style="stroke:none" d="M 1.9375 -18.078125 L 17.578125 -18.078125 L 17.578125 -13.734375 L 7.75 -13.734375 L 7.75 -11.234375 L 16.15625 -11.234375 L 16.15625 -7.09375 L 7.75 -7.09375 L 7.75 -4.328125 L 17.75 -4.328125 L 17.75 0 L 1.9375 0 Z M 1.9375 -18.078125 "/></g></g><g style="fill:#051d40;fill-opacity:1;"><g transform="translate(65.75741, 78.407916)"><path style="stroke:none" d=""/></g></g><g style="fill:#051d40;fill-opacity:1;"><g transform="translate(73.97708, 78.407916)"><path style="stroke:none" d="M 9.53125 -18.390625 C 11.84375 -18.390625 13.742188 -17.921875 15.234375 -16.984375 C 16.722656 -16.046875 17.484375 -14.65625 17.515625 -12.8125 L 17.515625 -12.5 L 12.078125 -12.5 L 12.078125 -12.609375 C 12.078125 -13.128906 11.882812 -13.566406 11.5 -13.921875 C 11.113281 -14.273438 10.53125 -14.453125 9.75 -14.453125 C 8.976562 -14.453125 8.382812 -14.335938 7.96875 -14.109375 C 7.5625 -13.878906 7.359375 -13.597656 7.359375 -13.265625 C 7.359375 -12.796875 7.632812 -12.445312 8.1875 -12.21875 C 8.75 -11.988281 9.65625 -11.75 10.90625 -11.5 C 12.351562 -11.207031 13.546875 -10.898438 14.484375 -10.578125 C 15.421875 -10.253906 16.238281 -9.722656 16.9375 -8.984375 C 17.632812 -8.242188 17.992188 -7.242188 18.015625 -5.984375 C 18.015625 -3.847656 17.289062 -2.265625 15.84375 -1.234375 C 14.40625 -0.203125 12.476562 0.3125 10.0625 0.3125 C 7.238281 0.3125 5.039062 -0.15625 3.46875 -1.09375 C 1.90625 -2.039062 1.125 -3.71875 1.125 -6.125 L 6.625 -6.125 C 6.625 -5.207031 6.859375 -4.59375 7.328125 -4.28125 C 7.796875 -3.976562 8.53125 -3.828125 9.53125 -3.828125 C 10.269531 -3.828125 10.878906 -3.90625 11.359375 -4.0625 C 11.835938 -4.226562 12.078125 -4.554688 12.078125 -5.046875 C 12.078125 -5.484375 11.8125 -5.8125 11.28125 -6.03125 C 10.75 -6.25 9.878906 -6.476562 8.671875 -6.71875 C 7.203125 -7.039062 5.984375 -7.367188 5.015625 -7.703125 C 4.054688 -8.046875 3.21875 -8.609375 2.5 -9.390625 C 1.78125 -10.179688 1.421875 -11.253906 1.421875 -12.609375 C 1.421875 -14.585938 2.1875 -16.046875 3.71875 -16.984375 C 5.25 -17.921875 7.1875 -18.390625 9.53125 -18.390625 Z M 9.53125 -18.390625 "/></g></g><g style="fill:#051d40;fill-opacity:1;"><g transform="translate(92.412482, 78.407916)"><path style="stroke:none" d="M 10.5625 -18.390625 C 13.238281 -18.390625 15.351562 -17.71875 16.90625 -16.375 C 18.46875 -15.039062 19.25 -13.128906 19.25 -10.640625 L 13.703125 -10.640625 C 13.703125 -11.691406 13.425781 -12.519531 12.875 -13.125 C 12.332031 -13.738281 11.550781 -14.046875 10.53125 -14.046875 C 9.351562 -14.046875 8.488281 -13.675781 7.9375 -12.9375 C 7.394531 -12.207031 7.125 -11.1875 7.125 -9.875 L 7.125 -8.1875 C 7.125 -6.894531 7.394531 -5.875 7.9375 -5.125 C 8.488281 -4.382812 9.335938 -4.015625 10.484375 -4.015625 C 11.597656 -4.015625 12.441406 -4.300781 13.015625 -4.875 C 13.597656 -5.457031 13.890625 -6.273438 13.890625 -7.328125 L 19.25 -7.328125 C 19.25 -4.859375 18.488281 -2.96875 16.96875 -1.65625 C 15.457031 -0.34375 13.320312 0.3125 10.5625 0.3125 C 7.476562 0.3125 5.144531 -0.472656 3.5625 -2.046875 C 1.976562 -3.617188 1.1875 -5.945312 1.1875 -9.03125 C 1.1875 -12.113281 1.976562 -14.441406 3.5625 -16.015625 C 5.144531 -17.597656 7.476562 -18.390625 10.5625 -18.390625 Z M 10.5625 -18.390625 "/></g></g><g style="fill:#051d40;fill-opacity:1;"><g transform="translate(112.318532, 78.407916)"><path style="stroke:none" d="M 14.046875 0 L 13.296875 -2.546875 L 6.953125 -2.546875 L 6.203125 0 L 0.265625 0 L 6.859375 -18.078125 L 13.609375 -18.078125 L 20.203125 0 Z M 8.171875 -6.59375 L 12.078125 -6.59375 L 10.1875 -13.03125 L 10.09375 -13.03125 Z M 8.171875 -6.59375 "/></g></g><g style="fill:#051d40;fill-opacity:1;"><g transform="translate(132.224581, 78.407916)"><path style="stroke:none" d="M 17.46875 0 L 17.46875 -6.515625 C 17.46875 -7.316406 17.5 -8.140625 17.5625 -8.984375 C 17.625 -9.835938 17.6875 -10.550781 17.75 -11.125 C 17.820312 -11.707031 17.867188 -12.078125 17.890625 -12.234375 L 17.78125 -12.234375 L 14.453125 0 L 9.90625 0 L 6.546875 -12.21875 L 6.4375 -12.21875 C 6.457031 -12.0625 6.503906 -11.695312 6.578125 -11.125 C 6.660156 -10.550781 6.734375 -9.835938 6.796875 -8.984375 C 6.867188 -8.140625 6.90625 -7.316406 6.90625 -6.515625 L 6.90625 0 L 1.578125 0 L 1.578125 -18.078125 L 9.765625 -18.078125 L 12.5 -7.640625 L 12.609375 -7.640625 L 15.3125 -18.078125 L 23.21875 -18.078125 L 23.21875 0 Z M 17.46875 0 "/></g></g></g></svg>