<svg xmlns="http://www.w3.org/2000/svg" xmlns:xlink="http://www.w3.org/1999/xlink" width="1000" zoomAndPan="magnify" viewBox="0 0 750 749.999995" height="1000" preserveAspectRatio="xMidYMid meet" version="1.2"><defs><clipPath id="d830ce3cb2"><path d="M 384 141.074219 L 676 141.074219 L 676 675 L 384 675 Z M 384 141.074219 "/></clipPath></defs><g id="bbc274c464"><path style=" stroke:none;fill-rule:nonzero;fill:#051d40;fill-opacity:1;" d="M 303.097656 424.417969 C 303.097656 421.140625 305.605469 418.636719 308.882812 418.636719 L 626.917969 418.636719 C 630.195312 418.636719 632.703125 421.140625 632.703125 424.417969 L 632.703125 667.285156 C 632.703125 670.558594 630.195312 673.066406 626.917969 673.066406 L 308.882812 673.066406 C 305.605469 673.066406 303.097656 670.558594 303.097656 667.285156 Z M 303.097656 424.417969 "/><path style=" stroke:none;fill-rule:nonzero;fill:#3e3d3d;fill-opacity:1;" d="M 188.796875 421.140625 C 192.269531 439.066406 210.195312 451.019531 218.675781 454.679688 C 235.636719 444.65625 272.835938 421.335938 285.558594 409.578125 C 298.28125 397.820312 292.5 378.160156 288.066406 369.675781 C 291.726562 366.015625 295.96875 350.59375 293.847656 339.414062 C 291.726562 328.234375 282.667969 334.402344 275.152344 340.1875 C 267.632812 345.96875 248.164062 344.042969 230.816406 344.425781 C 216.941406 344.8125 208.074219 352.714844 205.566406 356.570312 C 203.640625 356.378906 198.242188 357.917969 192.652344 364.859375 C 185.523438 373.726562 184.558594 398.589844 188.796875 421.140625 Z M 188.796875 421.140625 "/><path style=" stroke:none;fill-rule:evenodd;fill:#3e3d3d;fill-opacity:1;" d="M 0.480469 673.066406 C 0.480469 671.910156 1.253906 671.136719 2.410156 671.136719 L 768.589844 671.136719 C 769.746094 671.136719 770.519531 671.910156 770.519531 673.066406 C 770.519531 674.222656 769.746094 674.992188 768.589844 674.992188 L 2.410156 674.992188 C 1.253906 674.992188 0.480469 674.222656 0.480469 673.066406 Z M 0.480469 673.066406 "/><path style=" stroke:none;fill-rule:nonzero;fill:#051d40;fill-opacity:1;" d="M 385.980469 169.988281 C 385.980469 155.144531 398.125 143.003906 412.96875 143.003906 L 646.195312 143.003906 C 661.035156 143.003906 673.179688 155.144531 673.179688 169.988281 L 673.179688 646.082031 C 673.179688 660.921875 661.035156 673.066406 646.195312 673.066406 L 412.96875 673.066406 C 398.125 673.066406 385.980469 660.921875 385.980469 646.082031 Z M 385.980469 169.988281 "/><g clip-rule="nonzero" clip-path="url(#d830ce3cb2)"><path style=" stroke:none;fill-rule:evenodd;fill:#3e3d3d;fill-opacity:1;" d="M 384.054688 169.988281 C 384.054688 153.988281 396.96875 141.074219 412.96875 141.074219 L 646.195312 141.074219 C 662.191406 141.074219 675.105469 153.988281 675.105469 169.988281 L 675.105469 646.082031 C 675.105469 662.078125 662.191406 674.992188 646.195312 674.992188 L 412.96875 674.992188 C 396.96875 674.992188 384.054688 662.078125 384.054688 646.082031 Z M 412.96875 144.929688 C 399.089844 144.929688 387.910156 156.109375 387.910156 169.988281 L 387.910156 646.082031 C 387.910156 659.960938 399.089844 671.136719 412.96875 671.136719 L 646.195312 671.136719 C 660.074219 671.136719 671.253906 659.960938 671.253906 646.082031 L 671.253906 169.988281 C 671.253906 156.109375 660.074219 144.929688 646.195312 144.929688 Z M 412.96875 144.929688 "/></g><path style=" stroke:none;fill-rule:nonzero;fill:#ffffff;fill-opacity:1;" d="M 395.621094 171.914062 C 395.621094 161.3125 404.292969 152.640625 414.894531 152.640625 L 644.265625 152.640625 C 654.867188 152.640625 663.542969 161.3125 663.542969 171.914062 L 663.542969 630.660156 C 663.542969 641.261719 654.867188 649.9375 644.265625 649.9375 L 414.894531 649.9375 C 404.292969 649.9375 395.621094 641.261719 395.621094 630.660156 Z M 395.621094 171.914062 "/><path style=" stroke:none;fill-rule:nonzero;fill:#051d40;fill-opacity:1;" d="M 472.71875 152.640625 L 592.222656 152.640625 L 588.5625 162.855469 C 586.636719 168.253906 581.625 171.914062 575.839844 171.914062 L 489.101562 171.914062 C 483.320312 171.914062 478.308594 168.253906 476.382812 162.855469 C 476.382812 162.855469 472.71875 152.640625 472.71875 152.640625 Z M 472.71875 152.640625 "/><path style=" stroke:none;fill-rule:evenodd;fill:#051d40;fill-opacity:1;" d="M 464.625 420.949219 C 477.34375 397.625 502.210938 382.011719 530.542969 382.011719 C 558.878906 382.011719 583.742188 397.820312 596.464844 420.949219 C 596.464844 420.949219 596.464844 420.949219 596.273438 421.140625 C 580.273438 439.644531 556.757812 451.402344 530.542969 451.402344 C 504.136719 451.402344 480.621094 439.644531 464.625 420.949219 Z M 464.625 420.949219 "/><path style=" stroke:none;fill-rule:nonzero;fill:#051d40;fill-opacity:1;" d="M 563.3125 335.753906 C 563.3125 343.847656 560.421875 351.367188 555.410156 357.148438 C 549.433594 364.085938 540.566406 368.519531 530.542969 368.519531 C 512.425781 368.519531 497.777344 353.871094 497.777344 335.753906 C 497.777344 317.632812 512.425781 302.984375 530.542969 302.984375 C 548.664062 302.984375 563.3125 317.632812 563.3125 335.753906 Z M 563.3125 335.753906 "/><path style=" stroke:none;fill-rule:evenodd;fill:#051d40;fill-opacity:1;" d="M 397.933594 276.386719 C 406.21875 266.941406 411.039062 254.796875 411.039062 241.304688 C 411.039062 211.429688 386.945312 187.335938 357.070312 187.335938 C 327.191406 187.335938 303.097656 211.429688 303.097656 241.304688 C 303.097656 257.496094 310.230469 272.144531 321.601562 281.976562 L 325.652344 319.371094 L 350.707031 294.890625 C 352.828125 295.082031 354.949219 295.277344 357.070312 295.277344 C 373.453125 295.277344 388.101562 287.953125 397.933594 276.386719 Z M 397.933594 276.386719 "/><path style=" stroke:none;fill-rule:nonzero;fill:#d26f2c;fill-opacity:1;" d="M 340.300781 242.847656 L 322.375 256.917969 C 334.710938 277.734375 346.855469 271.953125 353.40625 269.445312 C 359.960938 266.941406 375.574219 259.425781 386.175781 247.859375 C 401.210938 230.511719 390.222656 215.667969 382.898438 210.464844 L 365.742188 225.5 C 369.597656 228.777344 374.417969 237.835938 363.238281 247.089844 C 352.058594 256.339844 343.382812 248.050781 340.300781 242.847656 Z M 340.300781 242.847656 "/><path style=" stroke:none;fill-rule:nonzero;fill:#051d40;fill-opacity:1;" d="M 102.640625 229.742188 L 260.695312 229.742188 L 260.695312 320.332031 L 232.746094 302.984375 L 102.640625 302.984375 Z M 102.640625 229.742188 "/><path style=" stroke:none;fill-rule:evenodd;fill:#ffffff;fill-opacity:1;" d="M 231.78125 257.6875 L 129.625 257.6875 L 129.625 253.835938 L 231.78125 253.835938 Z M 231.78125 280.820312 L 129.625 280.820312 L 129.625 276.964844 L 231.78125 276.964844 Z M 231.78125 280.820312 "/><path style=" stroke:none;fill-rule:evenodd;fill:#d26f2c;fill-opacity:1;" d="M 493.921875 485.132812 L 569.09375 485.132812 L 569.09375 490.917969 L 493.921875 490.917969 Z M 493.921875 485.132812 "/><path style=" stroke:none;fill-rule:nonzero;fill:#d26f2c;fill-opacity:1;" d="M 559.457031 550.667969 C 559.457031 567.246094 546.15625 580.546875 529.582031 580.546875 C 513.003906 580.546875 499.703125 567.246094 499.703125 550.667969 C 499.703125 534.09375 513.003906 520.792969 529.582031 520.792969 C 546.15625 520.792969 559.457031 534.09375 559.457031 550.667969 Z M 559.457031 550.667969 "/><path style=" stroke:none;fill-rule:nonzero;fill:#f1baa9;fill-opacity:1;" d="M 217.132812 431.550781 L 214.820312 494.578125 L 232.746094 511.542969 L 261.078125 500.167969 L 263.972656 485.132812 L 262.429688 454.871094 C 273.03125 449.863281 278.425781 440.03125 283.054688 418.828125 C 286.714844 402.058594 282.859375 388.179688 280.546875 383.167969 C 280.546875 383.167969 280.546875 382.976562 280.355469 382.976562 C 280.355469 382.976562 280.355469 383.167969 280.546875 383.167969 C 280.742188 384.132812 278.621094 386.253906 268.402344 388.179688 C 257.226562 390.300781 239.105469 387.023438 231.394531 385.289062 C 229.855469 387.601562 226.769531 394.542969 226.578125 405.144531 C 226.382812 415.746094 223.6875 414.972656 222.335938 413.238281 C 218.097656 406.683594 213.46875 404.757812 208.84375 411.503906 C 205.183594 416.707031 212.890625 427.117188 217.132812 431.550781 Z M 217.132812 431.550781 "/><path style=" stroke:none;fill-rule:nonzero;fill:#f1baa9;fill-opacity:1;" d="M 366.707031 566.089844 L 362.851562 560.308594 L 345.503906 558.378906 C 339.335938 564.546875 327.769531 578.234375 330.085938 584.402344 C 332.976562 592.109375 343.578125 613.3125 353.214844 615.242188 C 362.851562 617.167969 380.199219 606.566406 388.875 590.183594 C 395.8125 577.078125 414.894531 537.175781 423.566406 518.867188 C 422.605469 511.734375 418.941406 499.011719 412.003906 504.410156 C 405.0625 509.808594 378.851562 547.777344 366.707031 566.089844 Z M 366.707031 566.089844 "/><path style=" stroke:none;fill-rule:nonzero;fill:#d26f2c;fill-opacity:1;" d="M 238.527344 491.882812 C 214.628906 491.882812 208.652344 478.386719 208.652344 471.640625 C 191.882812 474.148438 155.066406 483.398438 141.1875 499.589844 C 127.3125 515.78125 127.117188 567.4375 128.660156 591.148438 C 134.828125 584.207031 155.066406 584.402344 164.320312 585.363281 L 167.210938 673.066406 L 321.410156 673.066406 L 321.410156 576.691406 L 329.121094 595.003906 C 332.976562 573.414062 355.140625 564.164062 365.742188 562.234375 C 358.417969 543.921875 340.6875 504.21875 329.121094 491.882812 C 317.554688 479.542969 286.328125 473.183594 272.257812 471.640625 C 270.910156 478.386719 262.429688 491.882812 238.527344 491.882812 Z M 238.527344 491.882812 "/><path style=" stroke:none;fill-rule:nonzero;fill:#051d40;fill-opacity:1;" d="M 180.125 402.058594 L 197.28125 394.925781 C 200.363281 393.769531 203.640625 395.121094 204.796875 398.203125 L 224.457031 449.476562 L 202.484375 458.921875 C 199.398438 460.269531 195.929688 458.726562 194.773438 455.644531 L 176.847656 409.578125 C 175.882812 406.492188 177.234375 403.214844 180.125 402.058594 Z M 180.125 402.058594 "/><path style=" stroke:none;fill-rule:evenodd;fill:#3e3d3d;fill-opacity:1;" d="M 320.640625 579.390625 L 308.109375 550.476562 L 311.582031 548.933594 L 324.109375 577.847656 Z M 320.640625 579.390625 "/><path style=" stroke:none;fill-rule:nonzero;fill:#f1baa9;fill-opacity:1;" d="M 418.558594 496.507812 C 414.507812 498.242188 412.003906 502.289062 411.039062 504.21875 C 414.703125 509.808594 422.21875 520.40625 423.375 518.671875 C 424.917969 516.359375 438.988281 509.421875 441.492188 509.421875 C 459.226562 510.386719 466.9375 504.796875 468.863281 504.21875 C 470.019531 504.023438 476.765625 498.628906 482.164062 494.964844 C 484.089844 493.808594 484.285156 490.917969 482.742188 489.375 C 481.777344 488.605469 480.429688 488.21875 479.273438 488.796875 C 475.03125 490.722656 469.25 493.617188 464.429688 495.15625 C 457.492188 497.46875 423.375 494.195312 418.558594 496.507812 Z M 418.558594 496.507812 "/><path style=" stroke:none;fill-rule:nonzero;fill:#f1baa9;fill-opacity:1;" d="M 160.464844 622.949219 C 140.417969 624.492188 132.902344 600.398438 131.550781 588.257812 C 140.804688 583.628906 146.972656 583.824219 148.898438 584.402344 C 154.683594 547.777344 172.992188 525.613281 180.703125 506.335938 C 188.414062 487.0625 191.304688 464.894531 191.304688 460.078125 C 191.304688 455.257812 188.414062 441.765625 191.304688 435.019531 C 194.195312 428.273438 207.6875 410.925781 211.542969 409.960938 C 215.398438 409 219.253906 417.671875 221.179688 424.417969 C 223.109375 431.164062 216.363281 444.65625 211.542969 450.441406 C 207.6875 455.066406 210 469.136719 211.542969 475.496094 C 208.074219 499.976562 200.171875 552.597656 197.085938 568.015625 C 193.230469 587.292969 185.523438 621.023438 160.464844 622.949219 Z M 160.464844 622.949219 "/><path style=" stroke:none;fill-rule:evenodd;fill:#d26f2c;fill-opacity:1;" d="M 167.019531 347.125 C 162.777344 346.160156 159.5 343.269531 157.957031 340.765625 L 161.234375 338.644531 C 162.390625 340.570312 164.898438 342.691406 167.789062 343.464844 C 170.679688 344.042969 174.535156 343.269531 179.355469 338.453125 L 182.050781 341.148438 C 176.65625 346.546875 171.449219 347.898438 167.019531 347.125 Z M 167.019531 347.125 "/><path style=" stroke:none;fill-rule:evenodd;fill:#d26f2c;fill-opacity:1;" d="M 167.019531 359.074219 C 162.777344 360.039062 159.5 362.929688 157.957031 365.4375 L 161.234375 367.558594 C 162.390625 365.628906 164.898438 363.507812 167.789062 362.738281 C 170.679688 362.160156 174.535156 362.929688 179.355469 367.75 L 182.050781 365.050781 C 176.65625 359.652344 171.449219 358.304688 167.019531 359.074219 Z M 167.019531 359.074219 "/><path style=" stroke:none;fill-rule:evenodd;fill:#d26f2c;fill-opacity:1;" d="M 175.113281 350.015625 C 176.078125 345.777344 178.96875 342.5 181.472656 340.957031 L 183.59375 344.234375 C 181.667969 345.390625 179.546875 347.898438 178.777344 350.789062 C 178.195312 353.679688 178.96875 357.535156 183.785156 362.351562 L 181.089844 365.050781 C 175.691406 359.652344 174.34375 354.449219 175.113281 350.015625 Z M 175.113281 350.015625 "/><path style=" stroke:none;fill-rule:evenodd;fill:#d26f2c;fill-opacity:1;" d="M 164.125 350.015625 C 163.164062 345.777344 160.269531 342.5 157.765625 340.957031 L 155.644531 344.234375 C 157.574219 345.390625 159.691406 347.898438 160.464844 350.789062 C 161.042969 353.679688 160.269531 357.535156 155.453125 362.351562 L 158.152344 365.050781 C 163.546875 359.652344 164.898438 354.449219 164.125 350.015625 Z M 164.125 350.015625 "/><path style=" stroke:none;fill-rule:evenodd;fill:#d26f2c;fill-opacity:1;" d="M 158.535156 397.433594 C 158.535156 393 160.851562 389.335938 162.96875 387.21875 L 165.667969 389.917969 C 164.125 391.457031 162.390625 394.347656 162.390625 397.433594 C 162.390625 400.324219 163.933594 404.179688 169.714844 407.839844 L 167.597656 411.117188 C 161.042969 406.878906 158.535156 402.058594 158.535156 397.433594 Z M 158.535156 397.433594 "/><path style=" stroke:none;fill-rule:evenodd;fill:#d26f2c;fill-opacity:1;" d="M 146.585938 399.9375 C 144.851562 395.890625 141.1875 393.386719 138.492188 392.421875 L 137.140625 396.085938 C 139.261719 396.855469 141.960938 398.78125 143.117188 401.671875 C 144.273438 404.371094 144.464844 408.421875 140.609375 414.011719 L 143.886719 416.128906 C 148.128906 409.578125 148.515625 404.179688 146.585938 399.9375 Z M 146.585938 399.9375 "/><path style=" stroke:none;fill-rule:evenodd;fill:#d26f2c;fill-opacity:1;" d="M 157.378906 406.105469 C 161.8125 406.105469 165.476562 408.421875 167.597656 410.539062 L 164.898438 413.238281 C 163.355469 411.695312 160.464844 409.960938 157.378906 409.960938 C 154.488281 409.960938 150.632812 411.503906 147.164062 417.285156 L 143.886719 415.167969 C 147.933594 408.613281 152.753906 406.105469 157.378906 406.105469 Z M 157.378906 406.105469 "/><path style=" stroke:none;fill-rule:evenodd;fill:#d26f2c;fill-opacity:1;" d="M 155.066406 395.121094 C 159.113281 393.386719 161.621094 389.722656 162.585938 387.023438 L 158.921875 385.675781 C 158.152344 387.796875 156.222656 390.496094 153.332031 391.652344 C 150.632812 392.808594 146.585938 393 140.996094 389.144531 L 138.875 392.421875 C 145.429688 396.664062 150.828125 397.046875 155.066406 395.121094 Z M 155.066406 395.121094 "/><path style=" stroke:none;fill-rule:evenodd;fill:#051d40;fill-opacity:1;" d="M 530.542969 279.855469 C 483.707031 279.855469 445.734375 317.828125 445.734375 364.664062 C 445.734375 411.503906 483.707031 449.476562 530.542969 449.476562 C 556.371094 449.476562 579.308594 438.105469 594.921875 419.984375 C 607.644531 405.144531 615.355469 385.867188 615.355469 364.664062 C 615.355469 317.828125 577.382812 279.855469 530.542969 279.855469 Z M 441.878906 364.664062 C 441.878906 315.707031 481.585938 276 530.542969 276 C 579.503906 276 619.210938 315.707031 619.210938 364.664062 C 619.210938 386.640625 611.113281 406.878906 597.8125 422.492188 C 581.625 441.378906 557.53125 453.332031 530.542969 453.332031 C 481.585938 453.332031 441.878906 413.625 441.878906 364.664062 Z M 441.878906 364.664062 "/><path style=" stroke:none;fill-rule:evenodd;fill:#3e3d3d;fill-opacity:1;" d="M 436.097656 208.539062 L 416.820312 208.539062 L 416.820312 204.683594 L 436.097656 204.683594 Z M 436.097656 218.175781 L 416.820312 218.175781 L 416.820312 214.320312 L 436.097656 214.320312 Z M 436.097656 227.8125 L 416.820312 227.8125 L 416.820312 223.957031 L 436.097656 223.957031 Z M 436.097656 227.8125 "/><g style="fill:#000000;fill-opacity:1;"><g transform="translate(527.729329, 414.289114)"><path style="stroke:none" d="M 5.21875 0.171875 C 4.34375 0.171875 3.570312 -0.00390625 2.90625 -0.359375 C 2.238281 -0.722656 1.722656 -1.253906 1.359375 -1.953125 C 0.992188 -2.648438 0.8125 -3.492188 0.8125 -4.484375 C 0.8125 -5.472656 0.992188 -6.316406 1.359375 -7.015625 C 1.722656 -7.710938 2.238281 -8.242188 2.90625 -8.609375 C 3.570312 -8.972656 4.34375 -9.15625 5.21875 -9.15625 C 6.09375 -9.15625 6.863281 -8.972656 7.53125 -8.609375 C 8.195312 -8.242188 8.710938 -7.710938 9.078125 -7.015625 C 9.453125 -6.316406 9.640625 -5.472656 9.640625 -4.484375 C 9.640625 -3.492188 9.453125 -2.648438 9.078125 -1.953125 C 8.710938 -1.253906 8.195312 -0.722656 7.53125 -0.359375 C 6.863281 -0.00390625 6.09375 0.171875 5.21875 0.171875 Z M 5.21875 -1.734375 C 6.613281 -1.734375 7.3125 -2.648438 7.3125 -4.484375 C 7.3125 -5.429688 7.128906 -6.125 6.765625 -6.5625 C 6.410156 -7.007812 5.894531 -7.234375 5.21875 -7.234375 C 3.820312 -7.234375 3.125 -6.316406 3.125 -4.484375 C 3.125 -2.648438 3.820312 -1.734375 5.21875 -1.734375 Z M 5.21875 -1.734375 "/></g></g></g></svg>